<svg id="visual" viewBox="0 0 960 300" width="960" height="300" xmlns="http://www.w3.org/2000/svg" xmlns:xlink="http://www.w3.org/1999/xlink" version="1.1"><rect x="0" y="0" width="960" height="300" fill="#20c37b"></rect><path d="M0 234L22.8 230.5C45.7 227 91.3 220 137 209.3C182.7 198.7 228.3 184.3 274 179.5C319.7 174.7 365.3 179.3 411.2 181.8C457 184.3 503 184.7 548.8 195.3C594.7 206 640.3 227 686 224.3C731.7 221.7 777.3 195.3 823 190C868.7 184.7 914.3 200.3 937.2 208.2L960 216L960 0L937.2 0C914.3 0 868.7 0 823 0C777.3 0 731.7 0 686 0C640.3 0 594.7 0 548.8 0C503 0 457 0 411.2 0C365.3 0 319.7 0 274 0C228.3 0 182.7 0 137 0C91.3 0 45.7 0 22.8 0L0 0Z" fill="#4f9d96"></path><path d="M0 139L22.8 135.7C45.7 132.3 91.3 125.7 137 129.7C182.7 133.7 228.3 148.3 274 149.7C319.7 151 365.3 139 411.2 144.5C457 150 503 173 548.8 179.7C594.7 186.3 640.3 176.7 686 165.2C731.7 153.7 777.3 140.3 823 133.8C868.7 127.3 914.3 127.7 937.2 127.8L960 128L960 0L937.2 0C914.3 0 868.7 0 823 0C777.3 0 731.7 0 686 0C640.3 0 594.7 0 548.8 0C503 0 457 0 411.2 0C365.3 0 319.7 0 274 0C228.3 0 182.7 0 137 0C91.3 0 45.7 0 22.8 0L0 0Z" fill="#347d88"></path><path d="M0 154L22.8 143.2C45.7 132.3 91.3 110.7 137 101.8C182.7 93 228.3 97 274 99.5C319.7 102 365.3 103 411.2 100.7C457 98.3 503 92.7 548.8 97C594.7 101.3 640.3 115.7 686 122.5C731.7 129.3 777.3 128.7 823 123.2C868.7 117.7 914.3 107.3 937.2 102.2L960 97L960 0L937.2 0C914.3 0 868.7 0 823 0C777.3 0 731.7 0 686 0C640.3 0 594.7 0 548.8 0C503 0 457 0 411.2 0C365.3 0 319.7 0 274 0C228.3 0 182.7 0 137 0C91.3 0 45.7 0 22.8 0L0 0Z" fill="#2a5e73"></path><path d="M0 85L22.8 84.3C45.7 83.7 91.3 82.3 137 86.7C182.7 91 228.3 101 274 100.7C319.7 100.3 365.3 89.7 411.2 90C457 90.3 503 101.7 548.8 101.7C594.7 101.7 640.3 90.3 686 90.5C731.7 90.7 777.3 102.3 823 100C868.7 97.7 914.3 81.3 937.2 73.2L960 65L960 0L937.2 0C914.3 0 868.7 0 823 0C777.3 0 731.7 0 686 0C640.3 0 594.7 0 548.8 0C503 0 457 0 411.2 0C365.3 0 319.7 0 274 0C228.3 0 182.7 0 137 0C91.3 0 45.7 0 22.8 0L0 0Z" fill="#274057"></path><path d="M0 63L22.8 57.3C45.7 51.7 91.3 40.3 137 41C182.7 41.7 228.3 54.3 274 61.3C319.7 68.3 365.3 69.7 411.2 65C457 60.3 503 49.7 548.8 49.3C594.7 49 640.3 59 686 63C731.7 67 777.3 65 823 62.5C868.7 60 914.3 57 937.2 55.5L960 54L960 0L937.2 0C914.3 0 868.7 0 823 0C777.3 0 731.7 0 686 0C640.3 0 594.7 0 548.8 0C503 0 457 0 411.2 0C365.3 0 319.7 0 274 0C228.3 0 182.7 0 137 0C91.3 0 45.7 0 22.8 0L0 0Z" fill="#212438"></path></svg>