<svg id="visual" viewBox="0 0 960 300" width="960" height="300" xmlns="http://www.w3.org/2000/svg" xmlns:xlink="http://www.w3.org/1999/xlink" version="1.1"><rect x="0" y="0" width="960" height="300" fill="#212438"></rect><path d="M0 238L22.8 228.5C45.7 219 91.3 200 137 196.5C182.7 193 228.3 205 274 208.2C319.7 211.3 365.3 205.7 411.2 200.2C457 194.7 503 189.3 548.8 190.7C594.7 192 640.3 200 686 196.5C731.7 193 777.3 178 823 184.7C868.7 191.3 914.3 219.7 937.2 233.8L960 248L960 0L937.2 0C914.3 0 868.7 0 823 0C777.3 0 731.7 0 686 0C640.3 0 594.7 0 548.8 0C503 0 457 0 411.2 0C365.3 0 319.7 0 274 0C228.3 0 182.7 0 137 0C91.3 0 45.7 0 22.8 0L0 0Z" fill="#253449"></path><path d="M0 179L22.8 183.2C45.7 187.3 91.3 195.7 137 186C182.7 176.3 228.3 148.7 274 135.7C319.7 122.7 365.3 124.3 411.2 126.3C457 128.3 503 130.7 548.8 143C594.7 155.3 640.3 177.7 686 175.5C731.7 173.3 777.3 146.7 823 145.8C868.7 145 914.3 170 937.2 182.5L960 195L960 0L937.2 0C914.3 0 868.7 0 823 0C777.3 0 731.7 0 686 0C640.3 0 594.7 0 548.8 0C503 0 457 0 411.2 0C365.3 0 319.7 0 274 0C228.3 0 182.7 0 137 0C91.3 0 45.7 0 22.8 0L0 0Z" fill="#215670"></path><path d="M0 151L22.8 145.7C45.7 140.3 91.3 129.7 137 127.3C182.7 125 228.3 131 274 129.7C319.7 128.3 365.3 119.7 411.2 115.3C457 111 503 111 548.8 119.2C594.7 127.3 640.3 143.7 686 143.2C731.7 142.7 777.3 125.3 823 115.7C868.7 106 914.3 104 937.2 103L960 102L960 0L937.2 0C914.3 0 868.7 0 823 0C777.3 0 731.7 0 686 0C640.3 0 594.7 0 548.8 0C503 0 457 0 411.2 0C365.3 0 319.7 0 274 0C228.3 0 182.7 0 137 0C91.3 0 45.7 0 22.8 0L0 0Z" fill="#007b8f"></path><path d="M0 90L22.8 87C45.7 84 91.3 78 137 75C182.7 72 228.3 72 274 76.3C319.7 80.7 365.3 89.3 411.2 90C457 90.7 503 83.3 548.8 86.5C594.7 89.7 640.3 103.3 686 102.8C731.7 102.3 777.3 87.7 823 81.5C868.7 75.3 914.3 77.7 937.2 78.8L960 80L960 0L937.2 0C914.3 0 868.7 0 823 0C777.3 0 731.7 0 686 0C640.3 0 594.7 0 548.8 0C503 0 457 0 411.2 0C365.3 0 319.7 0 274 0C228.3 0 182.7 0 137 0C91.3 0 45.7 0 22.8 0L0 0Z" fill="#00a198"></path><path d="M0 61L22.8 62.7C45.7 64.3 91.3 67.7 137 66.8C182.7 66 228.3 61 274 58C319.7 55 365.3 54 411.2 50.3C457 46.7 503 40.3 548.8 35.8C594.7 31.3 640.3 28.7 686 31.3C731.7 34 777.3 42 823 49.3C868.7 56.7 914.3 63.3 937.2 66.7L960 70L960 0L937.2 0C914.3 0 868.7 0 823 0C777.3 0 731.7 0 686 0C640.3 0 594.7 0 548.8 0C503 0 457 0 411.2 0C365.3 0 319.7 0 274 0C228.3 0 182.7 0 137 0C91.3 0 45.7 0 22.8 0L0 0Z" fill="#20c37b"></path></svg>